<?xml version="1.0" encoding="utf-8"?>
<!-- Generator: Adobe Illustrator 21.0.2, SVG Export Plug-In . SVG Version: 6.00 Build 0)  -->
<svg version="1.1" id="Layer_1" xmlns="http://www.w3.org/2000/svg" xmlns:xlink="http://www.w3.org/1999/xlink" x="0px" y="0px"
	 viewBox="0 0 288 140" style="enable-background:new 0 0 288 140;" xml:space="preserve">
<style type="text/css">
	.st0{fill:#0177A9;}
</style>
<g>
	<path class="st0" d="M163.6,25.7c6.9,0,12.5-5.6,12.5-12.5s-5.6-12.5-12.5-12.5s-12.5,5.6-12.5,12.5S156.7,25.7,163.6,25.7z"/>
	<path class="st0" d="M286.8,36.2h-24.3c-0.7,0-1.2,0.5-1.2,1.2v11.9c0,0.7,0.5,1.2,1.2,1.2h3.1l-15.7,48.7L237,50.5h2.9
		c0.7,0,1.2-0.5,1.2-1.2V37.5c0-0.7-0.5-1.2-1.2-1.2h-24.6l0,0h-12v-9.7c0-10,6.1-11.9,13-11.9c2.3,0,5,0.2,7.4,0.6
		c0.7,0.1,1.4-0.5,1.4-1.2v-11c0-0.6-0.4-1.1-1-1.2c-4.2-0.7-8.3-1.3-12.5-1.3c-14.5,0-26.5,6.4-26.5,25.5v10h-4.9
		c-0.7,0-1.2,0.5-1.2,1.2v11.9c0,0.7,0.5,1.2,1.2,1.2h4.9v41H179l0,0h-5.4v-54c0-0.7-0.5-1.2-1.2-1.2h-21.2c-0.7,0-1.2,0.5-1.2,1.2
		v11.8c0,0.7,0.5,1.2,1.2,1.2h4.2v41.1H150h-5.4V56c0-14.3-8-21.5-20.7-21.5c-10.4,0-19,5-25.7,10.4v-7.5c0-0.6-0.5-1.2-1.2-1.2
		H76.3c-0.6,0-1.2,0.5-1.2,1.2v11.8c0,0.6,0.5,1.2,1.2,1.2h4.3v41.1h-5.4h-5.4v-54c0-0.7-0.5-1.2-1.2-1.2H45.9
		c-0.7,0-1.2,0.5-1.2,1.2v11.7c0,0.7,0.5,1.2,1.2,1.2h5.7v34.8c-5.5,4.2-12.4,7.9-19.3,7.9c-6.4,0-8.5-3.2-8.5-9V37.4
		c0-0.6-0.5-1.1-1.1-1.1H1.1c-0.6,0-1.1,0.5-1.1,1.1v11.9c0,0.6,0.5,1.1,1.1,1.1h4.4v35.5c0,14.3,8,21.5,20.7,21.5
		c10.4,0,19-4.8,25.7-10.3v7.4c0,0.6,0.5,1.2,1.2,1.2H75h27.8c0.6,0,1.2-0.5,1.2-1.2V92.6c0-0.6-0.5-1.2-1.2-1.2h-4.3V56.8
		c5.5-4.2,12.4-8,19.3-8c6.4,0,8.5,3.2,8.5,9v33.7H122c-0.6,0-1.2,0.5-1.2,1.2v11.8c0,0.6,0.5,1.2,1.2,1.2h28h29l0,0h32
		c0.6,0,1.2-0.5,1.2-1.2V92.7c0-0.6-0.5-1.2-1.2-1.2h-7.6v-41h12l0,0h3l15.8,54.1c0.2,0.6,0.7,0.9,1.3,0.9h12.3l-3.7,11.9
		c-2.2,7.1-7.1,8-10.8,8c-4.3,0-7.5-1.4-10.6-2.9c-0.6-0.3-1.4,0-1.7,0.6l-4.2,9.8c-0.2,0.6,0,1.2,0.5,1.5
		c4.9,2.8,11.7,4.8,18.5,4.8c12.8,0,19.9-7.1,24.1-19.6l23.3-69.2h3.6c0.7,0,1.2-0.5,1.2-1.2V37.4C288,36.8,287.5,36.2,286.8,36.2z"
		/>
</g>
</svg>
